<?xml version="1.0" encoding="UTF-8"?>
<svg width="24px" height="24px" viewBox="0 0 24 24" version="1.1" xmlns="http://www.w3.org/2000/svg" xmlns:xlink="http://www.w3.org/1999/xlink">
    <!-- Generator: Sketch 52.1 (67048) - http://www.bohemiancoding.com/sketch -->
    <title>Artboard</title>
    <desc>Created with Sketch.</desc>
    <defs>
        <linearGradient x1="50%" y1="0%" x2="50%" y2="97.9611767%" id="linearGradient-1">
            <stop stop-color="#FFFFFF" stop-opacity="0.4" offset="0%"></stop>
            <stop stop-color="#FFFFFF" offset="100%"></stop>
        </linearGradient>
        <path d="M7.45101639,11.3714754 C7.54986885,11.1737705 7.71806557,11.0785574 7.89403279,11.0785574 C8.04236066,11.0785574 8.19629508,11.1462295 8.31895082,11.2771475 C10.6372131,13.7540656 11.4368852,17.9034098 10.1168852,20.6324262 C10.0315082,20.8139016 9.84727869,20.9277049 9.64691803,20.9229836 L3.52554098,20.9229836 C3.444,20.9229836 3.36344262,20.904 3.29045902,20.8675082 C3.1075082,20.7760328 3.00137705,20.5922951 3,20.4008852 L3,20.3939016 C3.0004918,20.316 3.01839344,20.2370164 3.05557377,20.1625574 L7.45101639,11.3714754 Z M11.5439803,3.28154754 C11.7820131,2.90423607 12.2525705,2.90925246 12.4376852,3.27820328 C12.6449311,3.69033443 20.8797836,20.1624984 20.8797836,20.1624984 C20.9162754,20.235482 20.935259,20.315941 20.935259,20.397482 C20.935259,20.6877443 20.6999803,20.9229246 20.4098164,20.9229246 L14.2886361,20.9229246 C14.0895541,20.9229246 13.9076852,20.8104984 13.8185705,20.6324656 L10.8670623,14.7292525 C9.24775082,11.4905311 9.0855541,7.17662951 11.5439803,3.28154754 Z" id="path-2"></path>
        <linearGradient x1="50%" y1="0%" x2="50%" y2="96.4637232%" id="linearGradient-4">
            <stop stop-color="#091E42" stop-opacity="0.4" offset="0%"></stop>
            <stop stop-color="#091E42" stop-opacity="0" offset="100%"></stop>
        </linearGradient>
    </defs>
    <g id="Artboard" stroke="none" stroke-width="1" fill="none" fill-rule="evenodd">
        <g id="themed-atlassian-/-small-24px">
            <mask id="mask-3" fill="white">
                <use xlink:href="#path-2"></use>
            </mask>
            <use id="Fill-1" fill="url(#linearGradient-1)" fill-rule="evenodd" xlink:href="#path-2"></use>
            <g id="Neutral-/-N500-AAA" mask="url(#mask-3)" fill="#42526E" fill-rule="evenodd">
                <polygon id="N500" points="0 24 24 24 24 0 0 0"></polygon>
            </g>
            <g id="atlassian" stroke-width="1" fill-rule="evenodd" transform="translate(3.000000, 3.000000)" fill="url(#linearGradient-4)">
                <path d="M4.45101639,8.37147541 L0.0555737705,17.1625574 C0.0183934426,17.2370164 0.000491803279,17.316 0,17.3939016 L0,17.4008852 C0.00137704918,17.5922951 0.107508197,17.7760328 0.290459016,17.8675082 C0.363442623,17.904 0.444,17.9229836 0.525540984,17.9229836 L6.64691803,17.9229836 C6.84727869,17.9277049 7.0315082,17.8139016 7.11688525,17.6324262 C8.43688525,14.9034098 7.63721311,10.7540656 5.31895082,8.27714754 C5.19629508,8.14622951 5.04236066,8.07855738 4.89403279,8.07855738 C4.71806557,8.07855738 4.54986885,8.17377049 4.45101639,8.37147541" id="Fill-1" style="mix-blend-mode: hard-light;"></path>
            </g>
        </g>
    </g>
</svg>