<?xml version="1.0" encoding="UTF-8"?>
<svg width="300px" height="300px" viewBox="0 0 300 300" version="1.1" xmlns="http://www.w3.org/2000/svg" xmlns:xlink="http://www.w3.org/1999/xlink">
    <!-- Generator: Sketch 63.1 (92452) - https://sketch.com -->
    <title>thunder</title>
    <desc>Created with Sketch.</desc>
    <g id="thunder" stroke="none" stroke-width="1" fill="none" fill-rule="evenodd">
        <g id="Group" transform="translate(10.000000, 10.000000)">
            <circle id="Oval" stroke="#007ACC" stroke-width="20" cx="140" cy="140" r="140"></circle>
            <g id="flash-(4)" transform="translate(65.000000, 28.000000)" fill="#007ACC" fill-rule="nonzero">
                <path d="M11.6959064,130.994152 L53.0245614,130.994152 L44.4912281,211.65848 C44.4538012,211.901754 44.4444444,212.622222 44.4444444,212.865497 C44.4444444,219.312281 49.6935673,224.561404 56.1403509,224.561404 C59.8081871,224.561404 63.3076023,222.802339 65.6280702,219.68655 L147.368421,102.923977 C148.874854,100.912281 149.707602,98.4233918 149.707602,95.9064327 C149.707602,89.4596491 144.45848,84.2105263 138.011696,84.2105263 L87.4292398,84.2105263 L95.8502924,13.071345 C95.8783626,12.8 95.897076,11.9672515 95.897076,11.6959064 C95.9064327,5.24912281 90.6573099,2.49313241e-14 84.2105263,2.49313241e-14 C80.5426901,2.49313241e-14 77.0432749,1.75906433 74.6479532,4.96842105 L2.33918129,112.280702 C0.832748538,114.292398 1.2465662e-14,116.781287 1.2465662e-14,119.298246 C1.2465662e-14,125.745029 5.24912281,130.994152 11.6959064,130.994152 L11.6959064,130.994152 Z" id="Path"></path>
            </g>
        </g>
    </g>
</svg>