<?xml version="1.0" encoding="UTF-8" standalone="no"?>
<svg width="16px" height="16px" viewBox="0 0 16 16" version="1.1" xmlns="http://www.w3.org/2000/svg" xmlns:xlink="http://www.w3.org/1999/xlink">
    <!-- Generator: Sketch 45.1 (43504) - http://www.bohemiancoding.com/sketch -->
    <title>icon-building</title>
    <path d="M.052 8a7.77 7.77 0 0 0 .637 3.105 8.055 8.055 0 0 0 1.707 2.551 8.055 8.055 0 0 0 2.55 1.707A7.77 7.77 0 0 0 8.053 16a7.77 7.77 0 0 0 3.105-.637 8.055 8.055 0 0 0 2.55-1.707 8.055 8.055 0 0 0 1.708-2.551A7.77 7.77 0 0 0 16.052 8a7.77 7.77 0 0 0-.637-3.105 8.055 8.055 0 0 0-1.707-2.551A8.055 8.055 0 0 0 11.157.637 7.77 7.77 0 0 0 8.052 0a7.77 7.77 0 0 0-3.105.637 8.055 8.055 0 0 0-2.551 1.707A8.055 8.055 0 0 0 .689 4.895 7.77 7.77 0 0 0 .052 8zm12.39 1.396a4.675 4.675 0 0 0-5.883-5.883l.61 1.904a2.676 2.676 0 0 1 3.368 3.369l1.905.61zM8.74 10.583a2.677 2.677 0 0 1-2.715-.653 2.678 2.678 0 0 1-.653-2.715l-1.905-.611a4.677 4.677 0 0 0 5.883 5.884l-.61-1.905z" fill="#0065FF" fill-rule="evenodd"></path>
</svg>